<svg width="16" height="16" viewBox="0 0 16 16" fill="none" xmlns="http://www.w3.org/2000/svg">
<path fill-rule="evenodd" clip-rule="evenodd" d="M2.57905 1.99382V0H4.51211V1.99382H11.4876V0H13.4207V1.99382H13.8406C15.6863 1.99382 15.9762 2.32511 16 3.94424V14.0004C16 15.416 15.8725 16 14.1321 16H1.87877C0.138311 16 0 15.5756 0 13.8569V4.14021C0.0233666 2.77398 0.155542 1.99382 2.0008 1.99382L2.57905 1.99382ZM1.54696 13.5788C1.54696 14.1196 1.71005 14.1555 2.06409 14.1555H14.0009C14.3545 14.1555 14.4536 14.1471 14.4536 13.6054V5.48897C14.4437 5.07089 14.3082 4.9974 14.0332 4.9974H1.93782C1.66261 4.9974 1.54318 5.05782 1.54696 5.37955L1.54696 13.5788Z" fill="#8E8EA9"/>
</svg>
