<svg width="32" height="32" viewBox="0 0 32 32" fill="none" xmlns="http://www.w3.org/2000/svg">
<rect x="0.5" y="0.5" width="31" height="31" rx="15.5" fill="#F9FAFB" stroke="#8B5CF6"/>
<path d="M16 32C24.8366 32 32 24.8366 32 16C32 7.16344 24.8366 0 16 0C7.16344 0 0 7.16344 0 16C0 24.8366 7.16344 32 16 32Z" fill="#6DA544"/>
<path d="M15.9986 6.26086L29.216 16L15.9986 25.7391L2.78125 16L15.9986 6.26086Z" fill="#FFDA44"/>
<path d="M15.9988 21.5653C19.0724 21.5653 21.564 19.0737 21.564 16.0001C21.564 12.9266 19.0724 10.4349 15.9988 10.4349C12.9252 10.4349 10.4336 12.9266 10.4336 16.0001C10.4336 19.0737 12.9252 21.5653 15.9988 21.5653Z" fill="#F0F0F0"/>
<path d="M13.2183 15.6523C12.2506 15.6523 11.3166 15.7995 10.4375 16.0727C10.4764 19.1127 12.9517 21.5654 16.0009 21.5654C17.8864 21.5654 19.5517 20.6268 20.5584 19.1924C18.8361 17.0363 16.186 15.6523 13.2183 15.6523Z" fill="#0052B4"/>
<path d="M21.4628 17.0664C21.5298 16.7211 21.566 16.3649 21.566 16.0001C21.566 12.9265 19.0744 10.4349 16.0008 10.4349C13.7075 10.4349 11.7387 11.8225 10.8867 13.8036C11.6398 13.6476 12.4196 13.5654 13.2183 13.5654C16.4506 13.5653 19.3747 14.9089 21.4628 17.0664Z" fill="#0052B4"/>
</svg>
